# xmcd
#
# Track frame offsets:
#	150
#	20645
#	42970
#	61395
#	81075
#	103022
#	128745
#	147577
#	166662
#	184750
#	202832
#	219000
#	249990
#	276580
#	288720
#	308357
#	334685
#
# Disc length: 4649 seconds
#
# Revision: 1
# Processed by: cddbd v1.4PL0 Copyright (c) Steve Scherf et al.
# Submitted via: audiograbber 1.81.01
#
DISCID=f1122711
DTITLE=Ukadan - Pure Best
DYEAR=2001
DGENRE=Blues
TTITLE0=Osaka big river blues (Album Mix)
TTITLE1=munega Itai (Original Version)
TTITLE2=the enka
TTITLE3=kazoe kirenai ame
TTITLE4=wakare no uta (Album Version)
TTITLE5=Good time's rollin', bad time's rollin'
TTITLE6=kiss ni negai wo
TTITLE7=uso wa tsumi
TTITLE8=You are my Angel
TTITLE9=nagisa no boad walk
TTITLE10=Midnight Drinker
TTITLE11=Chicago bound
TTITLE12=osouji OBACHAN
TTITLE13=yan natta
TTITLE14=Stealin'
TTITLE15=kimi to itsu made mo (stay with you forever)
TTITLE16=kokoro wa itsumo joutenki
EXTD=
EXTT0=
EXTT1=
EXTT2=
EXTT3=
EXTT4=
EXTT5=
EXTT6=
EXTT7=
EXTT8=
EXTT9=
EXTT10=
EXTT11=
EXTT12=
EXTT13=
EXTT14=
EXTT15=
EXTT16=
PLAYORDER=
